<?xml version="1.0" encoding="utf-8" ?><svg xmlns="http://www.w3.org/2000/svg" xmlns:xlink="http://www.w3.org/1999/xlink" width="1024" height="1024" viewBox="0 0 1024 1024" xmlns:c2pa="http://c2pa.org/manifest"><metadata><c2pa:manifest>AAAOlmp1bWIAAAAeanVtZGMycGEAEQAQgAAAqgA4m3EDYzJwYQAAAA5wanVtYgAAAEdqdW1kYzJtYQARABCAAACqADibcQN1cm46YzJwYTpiNTEwODI0Yi02MjIyLTQ4YmEtYTg4Yi0yZDE0YjVmYzYyNDYAAAADr2p1bWIAAAApanVtZGMyYXMAEQAQgAAAqgA4m3EDYzJwYS5hc3NlcnRpb25zAAAAAMxqdW1iAAAARGp1bWRjYm9yABEAEIAAAKoAOJtxE2MycGEuaW5ncmVkaWVudC52MwAAAAAYYzJzaCxQpaIY1qhgReuyQzF7xH0AAACAY2JvcqRscmVsYXRpb25zaGlwaHBhcmVudE9maGRjOnRpdGxlZnNvdXJjZWlkYzpmb3JtYXRtaW1hZ2Uvc3ZnK3htbGppbnN0YW5jZUlEeCx4bXA6aWlkOjM3NzZmMWQ2LWQ5ZTYtNDM1YS1iODQ3LWJjNjMyZTc0MzUxMwAAAe5qdW1iAAAAQWp1bWRjYm9yABEAEIAAAKoAOJtxE2MycGEuYWN0aW9ucy52MgAAAAAYYzJzaFjGy8CMmNynAymKPmy6eoYAAAGlY2JvcqFnYWN0aW9uc4KiZmFjdGlvbmtjMnBhLm9wZW5lZGpwYXJhbWV0ZXJzoWtpbmdyZWRpZW50c4GiY3VybHgtc2VsZiNqdW1iZj1jMnBhLmFzc2VydGlvbnMvYzJwYS5pbmdyZWRpZW50LnYzZGhhc2hYIEZz0hoJwqhp72Jr4ZjBc+izkdq58ERBRPuOw9TC4X/vpGZhY3Rpb25sYzJwYS5jcmVhdGVkanBhcmFtZXRlcnOha2luZ3JlZGllbnRzgaJjdXJseC1zZWxmI2p1bWJmPWMycGEuYXNzZXJ0aW9ucy9jMnBhLmluZ3JlZGllbnQudjNkaGFzaFggRnPSGgnCqGnvYmvhmMFz6LOR2rnwREFE+47D1MLhf+9xZGlnaXRhbFNvdXJjZVR5cGV4QWh0dHA6Ly9jdi5pcHRjLm9yZy9uZXdzY29kZXMvZGlnaXRhbHNvdXJjZXR5cGUvY29tcG9zaXRlU3ludGhldGlja2Rlc2NyaXB0aW9ueB9Db21wb3NlZCBpbiB0aGUgUmVjcmFmdCBlZGl0b3IuAAAAxGp1bWIAAABAanVtZGNib3IAEQAQgAAAqgA4m3ETYzJwYS5oYXNoLmRhdGEAAAAAGGMyc2iHbf6VMOdqair9VAfFsbDBAAAAfGNib3KlamV4Y2x1c2lvbnOBomVzdGFydBjsZmxlbmd0aBkTdGRuYW1lbmp1bWJmIG1hbmlmZXN0Y2FsZ2ZzaGEyNTZkaGFzaFggrC3+N3bDHNBaE3Ixfdud7Dua3CgOxFDoF6abt+3bgUtjcGFkSQAAAAAAAAAAAAAAApZqdW1iAAAAJ2p1bWRjMmNsABEAEIAAAKoAOJtxA2MycGEuY2xhaW0udjIAAAACZ2Nib3Knamluc3RhbmNlSUR4LHhtcDppaWQ6ZmFhNGY2YTYtNGY5Yi00MWRlLTllOWMtODkxNzljM2ZkMWFidGNsYWltX2dlbmVyYXRvcl9pbmZvo2RuYW1lanJlY3JhZnQuYWlndmVyc2lvbngoODFjZTgyZTJjNWMzY2JmYmU4YzZmYmUxNzlkNWY4ZDkxYzQwOWNlMXdvcmcuY29udGVudGF1dGguYzJwYV9yc2YwLjkwLjdpc2lnbmF0dXJleE1zZWxmI2p1bWJmPS9jMnBhL3VybjpjMnBhOmI1MTA4MjRiLTYyMjItNDhiYS1hODhiLTJkMTRiNWZjNjI0Ni9jMnBhLnNpZ25hdHVyZXJjcmVhdGVkX2Fzc2VydGlvbnOComN1cmx4KnNlbGYjanVtYmY9YzJwYS5hc3NlcnRpb25zL2MycGEuYWN0aW9ucy52MmRoYXNoWCAqBk/300JNEuMhhtwq5fS8dAu5sVSY3ttCUnwUxmhOQqJjdXJseClzZWxmI2p1bWJmPWMycGEuYXNzZXJ0aW9ucy9jMnBhLmhhc2guZGF0YWRoYXNoWCCe2Sj67juRo6GNDCgyvOzktyGtNY21RFGvFpEAQ+bdjHNnYXRoZXJlZF9hc3NlcnRpb25zgaJjdXJseC1zZWxmI2p1bWJmPWMycGEuYXNzZXJ0aW9ucy9jMnBhLmluZ3JlZGllbnQudjNkaGFzaFggRnPSGgnCqGnvYmvhmMFz6LOR2rnwREFE+47D1MLhf+9oZGM6dGl0bGVtUmVjcmFmdCBJbWFnZWNhbGdmc2hhMjU2AAAH3Gp1bWIAAAAoanVtZGMyY3MAEQAQgAAAqgA4m3EDYzJwYS5zaWduYXR1cmUAAAAHrGNib3LShFkDsKIBJhghglkB5zCCAeMwggGJoAMCAQICCQC33lpjQ1FuejAKBggqhkjOPQQDAjBAMR8wHQYDVQQDDBZSZWNyYWZ0IFN0YWdpbmcgRGV2IENBMRAwDgYDVQQKDAdSZWNyYWZ0MQswCQYDVQQGEwJVUzAeFw0yNjA2MTIxOTQzNTBaFw0yNzA2MTIxOTQzNTBaMDcxCzAJBgNVBAYTAlVTMRMwEQYDVQQKEwpSZWNyYWZ0IEFJMRMwEQYDVQQDEwpyZWNyYWZ0LmFpMFkwEwYHKoZIzj0CAQYIKoZIzj0DAQcDQgAESmk1WwArIPw3hty3jsWHSA/1QOhBRu9xOjpJ2/iiIghScoEVM+Lnjds/7dqmG+giFL0vEb4DoogpX6KrGLcPNaN1MHMwDAYDVR0TAQH/BAIwADAOBgNVHQ8BAf8EBAMCBsAwEwYDVR0lBAwwCgYIKwYBBQUHAwQwHQYDVR0OBBYEFC8x6QXp/eki9cuCDx2vDJDLIV39MB8GA1UdIwQYMBaAFAILKjgayqqXSv/5v5MWaO2UeHm3MAoGCCqGSM49BAMCA0gAMEUCIFPISltGl775PEkIFRTZGsevWJvWnvBrE9kWU0MPgedQAiEAtA+AZBKEQ+DdK9mUZDctB2Wlt1iAsv0GRjfeYpReMsxZAb0wggG5MIIBX6ADAgECAgkAnPloO0+gE28wCgYIKoZIzj0EAwIwQDEfMB0GA1UEAwwWUmVjcmFmdCBTdGFnaW5nIERldiBDQTEQMA4GA1UECgwHUmVjcmFmdDELMAkGA1UEBhMCVVMwHhcNMjYwNjEyMTk0MDE2WhcNMjgwNjExMTk0MDE2WjBAMR8wHQYDVQQDDBZSZWNyYWZ0IFN0YWdpbmcgRGV2IENBMRAwDgYDVQQKDAdSZWNyYWZ0MQswCQYDVQQGEwJVUzBZMBMGByqGSM49AgEGCCqGSM49AwEHA0IABEPSEAZXFWymij2K0EnzoS/9NLO8VAwu0YpyLizvyNZPfcvcoeqFhfZD8Wj/rcdb9T3ji98q1arie99B9GRog8qjQjBAMA8GA1UdEwEB/wQFMAMBAf8wDgYDVR0PAQH/BAQDAgGGMB0GA1UdDgQWBBQCCyo4Gsqql0r/+b+TFmjtlHh5tzAKBggqhkjOPQQDAgNIADBFAiBUMDSJi5WA3kIY4BfmYqk24HLs0qpjicN0NpUP4bvNxQIhAPTvHC5v8X6FS6geI7XW7h84t1i/qdkTfg0RpMKWLMFboWNwYWRZA6QAAAAAAAAAAAAAAAAAAAAAAAAAAAAAAAAAAAAAAAAAAAAAAAAAAAAAAAAAAAAAAAAAAAAAAAAAAAAAAAAAAAAAAAAAAAAAAAAAAAAAAAAAAAAAAAAAAAAAAAAAAAAAAAAAAAAAAAAAAAAAAAAAAAAAAAAAAAAAAAAAAAAAAAAAAAAAAAAAAAAAAAAAAAAAAAAAAAAAAAAAAAAAAAAAAAAAAAAAAAAAAAAAAAAAAAAAAAAAAAAAAAAAAAAAAAAAAAAAAAAAAAAAAAAAAAAAAAAAAAAAAAAAAAAAAAAAAAAAAAAAAAAAAAAAAAAAAAAAAAAAAAAAAAAAAAAAAAAAAAAAAAAAAAAAAAAAAAAAAAAAAAAAAAAAAAAAAAAAAAAAAAAAAAAAAAAAAAAAAAAAAAAAAAAAAAAAAAAAAAAAAAAAAAAAAAAAAAAAAAAAAAAAAAAAAAAAAAAAAAAAAAAAAAAAAAAAAAAAAAAAAAAAAAAAAAAAAAAAAAAAAAAAAAAAAAAAAAAAAAAAAAAAAAAAAAAAAAAAAAAAAAAAAAAAAAAAAAAAAAAAAAAAAAAAAAAAAAAAAAAAAAAAAAAAAAAAAAAAAAAAAAAAAAAAAAAAAAAAAAAAAAAAAAAAAAAAAAAAAAAAAAAAAAAAAAAAAAAAAAAAAAAAAAAAAAAAAAAAAAAAAAAAAAAAAAAAAAAAAAAAAAAAAAAAAAAAAAAAAAAAAAAAAAAAAAAAAAAAAAAAAAAAAAAAAAAAAAAAAAAAAAAAAAAAAAAAAAAAAAAAAAAAAAAAAAAAAAAAAAAAAAAAAAAAAAAAAAAAAAAAAAAAAAAAAAAAAAAAAAAAAAAAAAAAAAAAAAAAAAAAAAAAAAAAAAAAAAAAAAAAAAAAAAAAAAAAAAAAAAAAAAAAAAAAAAAAAAAAAAAAAAAAAAAAAAAAAAAAAAAAAAAAAAAAAAAAAAAAAAAAAAAAAAAAAAAAAAAAAAAAAAAAAAAAAAAAAAAAAAAAAAAAAAAAAAAAAAAAAAAAAAAAAAAAAAAAAAAAAAAAAAAAAAAAAAAAAAAAAAAAAAAAAAAAAAAAAAAAAAAAAAAAAAAAAAAAAAAAAAAAAAAAAAAAAAAAAAAAAAAAAAAAAAAAAAAAAAAAAAAAAAAAAAAAAAAAAAAAAAAAAAAAAAAAAAAAAAAAAAAAAAAAAAAAAAAAAAAAAAAAAAAAAAAAAAAAAAAAAAAAAAAAAAAAAAAAAAAAAAAAAPZYQLy6OB6TCQSJi9mKJ4OhqfA54zpS4eS7g7rd3GUxcrU8/g97wCPEsapxMIMNO5SiTvXjQ+7IqLmk4b93oTo++Y0=</c2pa:manifest></metadata><path fill="#211F20" d="M419.018 481.412C419.51 497.058 424.395 506.695 439.105 513.572C441.712 514.53 444.198 515.29 446.981 515.506C457.21 516.306 537.554 516.577 542.263 514.61C542.699 514.429 543.119 514.213 543.547 514.015C550.299 510.66 596.452 462.997 603.963 454.46C604.348 444.81 604.244 434.651 604.14 424.513C604.058 416.502 603.976 408.506 604.135 400.785C604.012 395.902 604.206 390.954 604.401 385.993C604.756 376.955 605.113 367.874 603.551 359.06C599.947 338.744 588.361 334.122 570.206 333.833C570.208 334.513 570.214 335.213 570.22 335.928C570.286 344.245 570.37 354.684 565.034 361.141C559.928 367.32 547.686 367.731 542.064 362.058C535.819 355.756 536.015 345.273 536.179 336.524C536.198 335.509 536.216 334.518 536.224 333.559C524.614 333.966 512.216 333.969 500.128 333.972C495.577 333.973 491.07 333.974 486.666 333.997C488.103 352.61 483.672 374.894 459.623 363.098C452.911 355.258 453.149 347.168 453.428 337.686C453.47 336.242 453.513 334.766 453.533 333.253C440.151 333.086 428.853 336.914 422.033 349.498C420.544 352.249 419.219 359.239 419.092 362.578C418.644 374.322 418.686 386.106 418.728 397.883C418.751 404.415 418.774 410.945 418.713 417.465C418.78 425.424 418.746 433.387 418.712 441.352C418.656 454.709 418.599 468.069 419.018 481.412ZM580.725 448.568C567.866 448.194 558.185 447.912 545.568 456.821C534.903 466.917 535.567 483.605 536.125 497.638C536.189 499.252 536.251 500.831 536.295 502.36C526.313 502.545 516 502.456 505.664 502.368C492.566 502.255 479.432 502.143 466.89 502.584C431.304 503.836 431.731 487.813 432.401 462.724C432.488 459.461 432.579 456.044 432.596 452.492L432.924 388.249C444.467 388.581 456.961 388.486 469.171 388.394C474.873 388.351 480.512 388.308 485.965 388.309C520.969 388.657 555.977 388.643 590.981 388.266C590.996 392.841 591.056 397.851 591.119 403.066C591.304 418.474 591.51 435.673 590.642 448.727C587.096 448.753 583.819 448.657 580.725 448.568Z"/><path fill="#131213" d="M455.066 513.673C449.609 513.79 443.785 513.914 439.105 513.572C441.712 514.53 444.198 515.29 446.981 515.506C457.21 516.306 537.554 516.577 542.263 514.61C542.699 514.429 543.119 514.213 543.547 514.015C536.516 513.364 527.268 513.429 519.109 513.487C516.846 513.503 514.667 513.518 512.642 513.518L461.892 513.565C459.771 513.573 457.454 513.622 455.066 513.673Z"/><path fill="#211F20" d="M474.454 441.069C472.97 436.865 468.364 434.656 464.156 436.127C459.93 437.605 457.709 442.235 459.2 446.457C460.691 450.678 465.328 452.886 469.544 451.381C473.744 449.884 475.939 445.271 474.454 441.069Z"/><path fill="#211F20" d="M471.389 408.54C469.125 406.872 466.138 406.553 463.572 407.704C459.686 409.449 457.921 413.991 459.607 417.902C461.294 421.814 465.808 423.647 469.744 422.019C472.344 420.943 474.162 418.551 474.502 415.76C474.843 412.967 473.654 410.209 471.389 408.54Z"/><path fill="#211F20" d="M474.149 469.373C472.37 465.466 467.75 463.756 463.854 465.559C459.992 467.348 458.3 471.918 460.064 475.791C461.828 479.663 466.388 481.385 470.271 479.644C474.189 477.889 475.929 473.281 474.149 469.373Z"/><path fill="#211F20" d="M476.888 605.59C472.137 605.859 469.14 606.029 464.371 605.756C464.345 609.736 464.364 613.861 464.384 618.028C464.424 626.458 464.464 635.059 464.128 642.978C457.059 635.141 450.688 630.131 439.393 629.707C431.027 629.458 422.91 632.578 416.866 638.368C399.057 655.121 398.6 695.584 423.32 705.323C441.066 711.102 453.987 709.021 465.334 693.033C465.34 693.481 465.346 693.923 465.352 694.36C465.412 698.563 465.466 702.309 465.078 706.61C469.724 706.442 472.452 706.348 477.105 706.739C476.703 673.025 476.63 639.306 476.888 605.59ZM464.276 660.218C466.766 678.771 462.423 694.407 442.562 698.327C407.81 699.597 407.872 644.809 440.43 640.698C452.516 641.546 462.612 647.821 464.276 660.218Z"/><path fill="#211F20" d="M309.569 673.729C309.011 649.017 302.106 632.212 274.131 630.745C247.333 633.031 237.248 650.61 239.265 675.583C241.103 698.333 258.918 711.007 280.899 708.012C296.359 705.906 303.666 699.372 308.093 684.574C307.752 684.541 307.296 684.49 306.76 684.431C303.543 684.074 297.441 683.396 295.982 684.332C291.261 691.114 287.04 696.291 278.145 697.828C272.527 698.799 266.756 697.492 262.104 694.196C256.967 690.574 250.153 680.768 252.706 674.281C254.816 672.433 301.79 673.19 307.829 673.596C308.41 673.633 308.99 673.677 309.569 673.729ZM297.8 662.577C290.966 662.898 284.129 663.155 277.291 663.347C276.177 663.355 274.627 663.443 272.832 663.546C265.188 663.982 253.084 664.673 251.074 660.488C251.524 652.275 264.099 643.942 271.125 641.308C286.728 640.438 293.642 648.578 297.8 662.577Z"/><path fill="#211F20" d="M996.694 673.572C995.749 649.198 990.855 632.284 962.569 630.782C935.525 632.535 924.997 649.434 926.814 675.097C928.357 696.881 945.698 711.255 967.399 707.965C984.438 705.33 989.762 699.323 995.963 683.945C995.328 683.926 994.677 683.897 994.017 683.867C990.967 683.73 987.715 683.584 984.974 684.366L983.96 685.348C979.978 691.64 975.271 696.019 967.666 697.774C961.703 699.154 955.435 697.982 950.375 694.541C942.436 689.148 940.453 681.994 938.43 673.372C950.355 673.644 962.488 673.607 974.583 673.569C981.986 673.547 989.375 673.524 996.694 673.572ZM964.802 663.598C956.044 663.83 947.281 663.927 938.52 663.886C942.785 650.464 944.808 645.49 958.732 641.222C975.759 640.323 981.153 648.037 984.855 663.47L964.802 663.598Z"/><path fill="#211F20" d="M162.416 630.397C160.411 630.41 158.406 630.49 156.406 630.637C140.445 633.865 136.019 640.291 131.299 655.091C135.2 655.545 139.281 656.089 143.177 656.414C154.242 626.028 182.654 645.568 180.593 657.769C177.817 661.282 170.837 662.113 162.897 663.06C147.308 664.918 128.021 667.216 129.595 691.111C139.315 715.679 164.041 711.025 180.397 696.069C180.276 699.46 180.226 703.164 179.975 706.519C180.882 706.514 181.893 706.498 182.952 706.482C186.006 706.436 189.461 706.384 191.964 706.542C191.894 698.789 191.925 691.036 192.056 683.284C192.084 681.908 192.119 680.513 192.155 679.105C192.733 656.418 193.395 630.452 162.416 630.397ZM179.806 680.527C173.412 696.193 160.969 700.502 145.791 695.75C125.028 679.781 161.487 672.381 174.623 669.715C175.79 669.478 176.774 669.278 177.516 669.113L179.11 668.811L180.095 670.174C180.56 672.831 180.815 678.055 179.806 680.527Z"/><path fill="#211F20" d="M556.793 693.189C558.276 664.699 560.105 629.578 523.942 630.706C519.988 631.16 516.457 631.55 512.87 633.469C505.873 637.215 491.969 645.372 497.825 654.709C500.67 655.791 504.477 656.803 507.474 655.903C510.605 649.833 509.689 644.331 519.793 641.172C525.05 639.539 530.749 640.136 535.556 642.823C540.384 645.578 546.851 652.421 544.412 658.419C536.417 666.061 494.543 659.115 494.073 686.641L494.067 687.439C496.944 714.89 529.172 712.734 544.81 697.159L544.872 706.593L556.259 706.592C556.312 702.435 556.548 697.903 556.793 693.189ZM521.613 697.408C517.54 697.482 514.927 696.837 511.087 695.857C498.63 687.86 506.861 679.821 516.996 675.965C525.103 672.882 533.233 671.481 541.685 669.816L543.695 669.775L544.573 670.767C548.282 684.294 534.528 697.174 521.613 697.408Z"/><path fill="#211F20" d="M860.635 677.747C861.137 652.895 860.723 630.246 828.711 630.734C802.497 633.275 791.228 659.029 810.204 656.171C814.107 652.327 814.945 646.695 820.871 643.195C824.485 640.324 827.542 640.269 831.411 639.613C839.208 638.29 855.763 656.453 845.486 660.349C829.427 666.439 800.606 661.353 798.089 685.884C800.738 715.46 829.48 711.387 848.004 698.539C848.601 701.467 848.239 704.752 849.405 706.454C853.098 706.62 856.795 706.702 860.492 706.697C860.512 703.341 860.512 699.922 860.512 696.484C860.511 690.204 860.51 683.865 860.635 677.747ZM832.861 696.547C826.056 699.211 820.235 698.737 813.751 695.797C798.017 679.226 825.924 673.474 841.293 670.307C843.622 669.827 845.662 669.406 847.22 669.016L847.771 669.088C849.318 672.379 848.072 679.245 846.791 682.595C844.343 689.014 839.277 694.088 832.861 696.547Z"/><path fill="#211F20" d="M701.318 633.696C695.07 609.448 682.992 603.619 659.118 604.433C642.085 606.446 628.364 614.765 629.513 634.86C630.086 644.89 642.157 652.032 650.378 655.356C653.326 656.659 657.584 657.812 662.267 659.079C678.479 663.468 699.789 669.237 689.512 687.423C682.969 699 658.691 700.532 648.958 692.75C643.363 688.699 639.825 681.984 636.472 675.86C632.062 676.061 627.647 676.169 623.277 676.781C627.977 695.398 641.75 708.194 661.46 708.163C673.864 708.421 684.907 707.164 694.633 698.511C702.437 691.899 707.179 677.709 701.49 668.398C691.078 651.354 666.69 652.047 650.937 643.741C630.38 632.905 647.635 612.436 665.494 614.121C679.796 615.471 685.814 620.697 690.327 634.034C690.898 634.004 691.466 633.973 692.032 633.942C695.136 633.772 698.179 633.605 701.318 633.696Z"/><path fill="#211F20" d="M113.723 634.31C107.209 612.135 91.634 601.997 68.6182 605.038C55.6805 607.242 45.209 611.522 37.5527 622.883C13.6146 658.399 32.7873 717.917 82.9871 707.33C104.569 702.777 111.105 691.1 115.405 671.29C114.272 671.297 113.08 671.313 111.866 671.329C108.913 671.369 105.825 671.41 103.112 671.323C101.297 680.698 100.183 684.343 93.0082 691.215C85.627 696.45 76.5652 699.512 67.4322 697.885C34.2984 691.981 32.0646 635.944 57.2728 619.776C64.3133 615.353 72.8134 613.879 80.933 615.672C88.3255 617.365 94.6902 622.034 98.5262 628.575C99.6466 630.453 100.676 632.702 101.587 634.689C105.574 634.581 109.758 634.538 113.723 634.31Z"/><path fill="#211F20" d="M728.922 605.754C725.74 605.851 722.003 605.964 719.415 605.758L718.815 706.432C719.807 706.401 720.813 706.364 721.825 706.328C725.048 706.21 728.34 706.091 731.484 706.129C731.434 704.382 731.335 702.299 731.223 699.966C730.252 679.697 728.38 640.635 751.038 640.783C755.865 640.807 760.454 642.873 763.671 646.471C768.317 651.58 768.855 656.582 769.249 663.059L769.378 706.499C770.225 706.485 771.09 706.466 771.966 706.446C775.347 706.369 778.887 706.289 782.117 706.508L782.185 681.471C782.195 680.132 782.22 678.725 782.246 677.266C782.476 664.091 782.78 646.699 773.462 637.78C760.627 625.493 743.164 629.599 731.468 640.653C731.44 638.983 731.409 637.334 731.379 635.701C731.191 625.571 731.014 616.049 731.562 605.681C730.76 605.698 729.865 605.725 728.922 605.754Z"/><path fill="#211F20" d="M388.329 694.874C389.583 667.887 391.363 629.586 358.468 630.669C348.178 632.126 344.432 634.367 337.263 642.259C337.75 637.713 337.84 636.673 337.32 631.975C336.57 631.988 335.815 632.005 335.057 632.021C332.037 632.087 328.966 632.154 325.996 632.019C326.013 639.616 325.986 647.354 325.96 655.139C325.902 672.118 325.843 689.327 326.232 705.811C327.435 705.819 328.645 705.832 329.857 705.844C332.647 705.872 335.451 705.901 338.214 705.885C338.402 702.035 338.274 697.331 338.134 692.223C337.646 674.391 337.024 651.639 349.304 643.102C372.488 633.411 376.408 655.875 376.11 673.243C375.923 684.071 375.99 695.159 375.9 706.013C379.413 706.13 384.547 706.16 387.914 706.493C387.951 703.025 388.133 699.087 388.329 694.874Z"/><path fill="#211F20" d="M220.273 605.73C216.956 605.807 212.696 605.905 210.29 605.659C210.353 613.57 210.277 621.411 210.2 629.236C210.131 636.321 210.062 643.392 210.097 650.491C210.124 655.872 210.184 661.203 210.244 666.515C210.395 679.848 210.544 693.061 210.16 706.652C213.899 706.499 218.238 706.223 221.927 706.207C223.846 684.616 223.393 657.451 222.978 632.522C222.821 623.117 222.67 614.03 222.653 605.681C221.96 605.691 221.149 605.71 220.273 605.73Z"/><path fill="#211F20" d="M615.806 630.788C611.896 630.922 607.76 630.983 603.879 631.308C595.143 633.877 592.744 635.73 587.161 642.849C587.313 639.209 587.503 635.503 587.61 631.87L575.252 631.851C575.324 639.378 575.267 646.944 575.209 654.515C575.144 663.129 575.079 671.748 575.204 680.319C575.237 682.58 575.188 685.398 575.136 688.385C575.032 694.392 574.916 701.085 575.431 705.323C576.104 705.769 576.238 705.934 576.407 705.99C576.559 706.039 576.739 706.001 577.359 705.997L587.577 706.233C587.571 701.133 587.26 695.914 586.954 690.761C585.5 666.325 584.135 643.381 615.737 641.715C615.739 640.781 615.737 639.838 615.735 638.89C615.73 636.184 615.725 633.443 615.806 630.788Z"/><path fill="#211F20" d="M919.667 631.146L908.999 631.282L907.952 631.532C905.375 632.163 904.267 632.488 901.824 633.396C900.417 633.92 898.821 635.163 897.29 636.355C895.342 637.872 893.499 639.308 892.281 639.077C892.045 636.404 892.191 635.34 892.512 632.997C892.553 632.703 892.596 632.388 892.641 632.048L879.756 632.024C879.76 634.475 879.718 638.743 879.665 644.04C879.459 664.842 879.095 701.519 880.766 706.421L891.807 706.114C891.794 701.925 891.567 697.459 891.336 692.91C890.097 668.522 888.738 641.768 919.483 642.582L919.667 631.146Z"/><path fill="#211F20" d="M467.907 316.08L467.054 316.106C459.996 319.635 460.016 328.863 460.031 336.044L460.032 336.455C460.033 336.669 460.033 336.885 460.033 337.101C460.044 347.494 460.057 359.448 473.567 358.983C478.625 354.554 479.852 350.374 479.882 343.628C479.888 342.34 479.937 340.935 479.987 339.464C480.34 329.239 480.804 315.81 467.907 316.08Z"/><path fill="#211F20" d="M562.888 337.964C563.079 328.148 563.137 315.242 550.304 315.43C545.929 319.02 543.655 323.424 543.672 329.128C543.677 330.932 543.601 332.842 543.523 334.792C543.092 345.536 542.613 357.467 555.531 359.362C562.617 355.222 562.746 346.942 562.863 339.414C562.871 338.927 562.878 338.444 562.888 337.964Z"/></svg>